<svg xmlns="http://www.w3.org/2000/svg" xmlns:xlink="http://www.w3.org/1999/xlink" contentStyleType="text/css" height="529px" preserveAspectRatio="none" style="width:1440px;height:529px;background:#FFFFFF;" version="1.1" viewBox="0 0 1440 529" width="1440px" zoomAndPan="magnify"><defs><filter height="300%" id="fjc4z0fwzr226" width="300%" x="-1" y="-1"><feGaussianBlur result="blurOut" stdDeviation="2"/><feColorMatrix in="blurOut" result="blurOut2" type="matrix" values="0 0 0 0 0 0 0 0 0 0 0 0 0 0 0 0 0 0 .4 0"/><feOffset dx="4" dy="4" in="blurOut2" result="blurOut3"/><feBlend in="SourceGraphic" in2="blurOut3" mode="normal"/></filter></defs><g><!--cluster Application--><g id="cluster_Application"><rect fill="none" filter="url(#fjc4z0fwzr226)" height="510" style="stroke:#000000;stroke-width:1.5;" width="1302" x="126" y="7"/><text fill="#000000" font-family="sans-serif" font-size="14" font-weight="bold" lengthAdjust="spacing" textLength="89.2979" x="129" y="21.9951">Application</text></g><g id="elem_Carte"><ellipse cx="278.9738" cy="141.0948" fill="#FEFECE" filter="url(#fjc4z0fwzr226)" rx="123.4738" ry="27.0948" style="stroke:#A80036;stroke-width:1;"/><text fill="#000000" font-family="sans-serif" font-size="14" lengthAdjust="spacing" textLength="214.751" x="171.5983" y="143.9414">Consulter la carte du b&#226;timent</text></g><g id="elem_Capteurs"><ellipse cx="986.374" cy="75.7748" fill="#FEFECE" filter="url(#fjc4z0fwzr226)" rx="154.374" ry="33.2748" style="stroke:#A80036;stroke-width:1;"/><text fill="#000000" font-family="sans-serif" font-size="14" lengthAdjust="spacing" textLength="279.5762" x="846.5859" y="78.6215">Visualiser les informations des capteurs</text></g><g id="elem_Historique"><ellipse cx="278.7848" cy="304.757" fill="#FEFECE" filter="url(#fjc4z0fwzr226)" rx="136.7848" ry="29.757" style="stroke:#A80036;stroke-width:1;"/><text fill="#000000" font-family="sans-serif" font-size="14" lengthAdjust="spacing" textLength="242.8604" x="157.3546" y="307.6036">Consulter l'historique des donn&#233;es</text></g><g id="elem_Voir &#233;tat des portes"><ellipse cx="624.163" cy="141.1326" fill="#FEFECE" filter="url(#fjc4z0fwzr226)" rx="88.663" ry="20.1326" style="stroke:#A80036;stroke-width:1;"/><text fill="#000000" font-family="sans-serif" font-size="14" lengthAdjust="spacing" textLength="138.708" x="554.809" y="143.9793">Voir &#233;tat des portes</text></g><g id="elem_S&#233;lectionner une salle"><ellipse cx="624.0377" cy="64.1075" fill="#FEFECE" filter="url(#fjc4z0fwzr226)" rx="96.0377" ry="21.6075" style="stroke:#A80036;stroke-width:1;"/><text fill="#000000" font-family="sans-serif" font-size="14" lengthAdjust="spacing" textLength="155.2852" x="546.3951" y="66.9542">S&#233;lectionner une salle</text></g><g id="elem_Voir temp&#233;rature"><ellipse cx="1330.8374" cy="136.0675" fill="#FEFECE" filter="url(#fjc4z0fwzr226)" rx="80.8374" ry="18.5675" style="stroke:#A80036;stroke-width:1;"/><text fill="#000000" font-family="sans-serif" font-size="14" lengthAdjust="spacing" textLength="120.5449" x="1269.2101" y="139.3549">Voir temp&#233;rature</text></g><g id="elem_Voir humidit&#233;"><ellipse cx="1331.0783" cy="66.0157" fill="#FEFECE" filter="url(#fjc4z0fwzr226)" rx="70.5783" ry="16.5157" style="stroke:#A80036;stroke-width:1;"/><text fill="#000000" font-family="sans-serif" font-size="14" lengthAdjust="spacing" textLength="94.3906" x="1280.883" y="69.7632">Voir humidit&#233;</text></g><g id="elem_Filtrer par salle"><ellipse cx="986.4303" cy="280.8861" fill="#FEFECE" filter="url(#fjc4z0fwzr226)" rx="74.9303" ry="17.3861" style="stroke:#A80036;stroke-width:1;"/><text fill="#000000" font-family="sans-serif" font-size="14" lengthAdjust="spacing" textLength="105.834" x="930.5133" y="284.6336">Filtrer par salle</text></g><g id="elem_Filtrer par p&#233;riode"><ellipse cx="986.471" cy="353.0942" fill="#FEFECE" filter="url(#fjc4z0fwzr226)" rx="83.471" ry="19.0942" style="stroke:#A80036;stroke-width:1;"/><text fill="#000000" font-family="sans-serif" font-size="14" lengthAdjust="spacing" textLength="126.7793" x="922.6466" y="356.089">Filtrer par p&#233;riode</text></g><g id="elem_Filtrer par type de capteur"><ellipse cx="986.6571" cy="431.8314" fill="#FEFECE" filter="url(#fjc4z0fwzr226)" rx="109.6571" ry="24.3314" style="stroke:#A80036;stroke-width:1;"/><text fill="#000000" font-family="sans-serif" font-size="14" lengthAdjust="spacing" textLength="185.1377" x="894.0883" y="434.6781">Filtrer par type de capteur</text></g><g id="elem_Afficher les graphiques"><ellipse cx="623.8405" cy="305.1681" fill="#FEFECE" filter="url(#fjc4z0fwzr226)" rx="98.8405" ry="22.1681" style="stroke:#A80036;stroke-width:1;"/><text fill="#000000" font-family="sans-serif" font-size="14" lengthAdjust="spacing" textLength="161.499" x="543.091" y="308.0148">Afficher les graphiques</text></g><!--entity Chercheur--><g id="elem_Chercheur"><ellipse cx="42.415" cy="192.5" fill="#FEFECE" filter="url(#fjc4z0fwzr226)" rx="8" ry="8" style="stroke:#A80036;stroke-width:2;"/><path d="M42.415,200.5 L42.415,227.5 M29.415,208.5 L55.415,208.5 M42.415,227.5 L29.415,242.5 M42.415,227.5 L55.415,242.5 " fill="none" filter="url(#fjc4z0fwzr226)" style="stroke:#A80036;stroke-width:2;"/><text fill="#000000" font-family="sans-serif" font-size="14" lengthAdjust="spacing" textLength="72.8301" x="6" y="262.4951">Chercheur</text></g><!--link Chercheur to Carte--><g id="link_Chercheur_Carte"><path d="M79.12,211.39 C114.61,198.83 164.2537,181.2617 207.5437,165.9417 " fill="none" id="Chercheur-to-Carte" style="stroke:#A80036;stroke-width:1;"/><polygon fill="#A80036" points="213.2,163.94,203.3812,163.1717,208.4865,165.6081,206.0501,170.7134,213.2,163.94" style="stroke:#A80036;stroke-width:1;"/></g><!--link Carte to Voir ?tat des portes--><g id="link_Carte_Voir &#233;tat des portes"><path d="M402.86,141 C446.69,141 489.14,141 529.4,141 " fill="none" id="Carte-to-Voir &#233;tat des portes" style="stroke:#A80036;stroke-width:1;stroke-dasharray:7.0,7.0;"/><polygon fill="#A80036" points="535.4,141,526.4,137,530.4,141,526.4,145,535.4,141" style="stroke:#A80036;stroke-width:1;"/><text fill="#000000" font-family="sans-serif" font-size="13" lengthAdjust="spacing" textLength="47.0996" x="447" y="137.0669">include</text></g><!--link Carte to S?lectionner une salle--><g id="link_Carte_S&#233;lectionner une salle"><path d="M366.11,121.67 C424.75,108.5 495.4158,92.6448 549.6458,80.4648 " fill="none" id="Carte-to-S&#233;lectionner une salle" style="stroke:#A80036;stroke-width:1;stroke-dasharray:7.0,7.0;"/><polygon fill="#A80036" points="555.5,79.15,545.8422,77.2195,550.6215,80.2457,547.5953,85.025,555.5,79.15" style="stroke:#A80036;stroke-width:1;"/><text fill="#000000" font-family="sans-serif" font-size="13" lengthAdjust="spacing" textLength="47.0996" x="447" y="90.0669">include</text></g><!--link Chercheur to Historique--><g id="link_Chercheur_Historique"><path d="M79.12,236.3 C112.3,247.76 157.1287,263.2513 198.9387,277.6913 " fill="none" id="Chercheur-to-Historique" style="stroke:#A80036;stroke-width:1;"/><polygon fill="#A80036" points="204.61,279.65,197.4089,272.9311,199.8839,278.0177,194.7973,280.4928,204.61,279.65" style="stroke:#A80036;stroke-width:1;"/></g><!--link S?lectionner une salle to Capteurs--><g id="link_S&#233;lectionner une salle_Capteurs"><path d="M719.25,67.14 C754.19,68.3 788.7733,69.4505 827.5533,70.7405 " fill="none" id="S&#233;lectionner une salle-to-Capteurs" style="stroke:#A80036;stroke-width:1;stroke-dasharray:7.0,7.0;"/><polygon fill="#A80036" points="833.55,70.94,824.688,66.643,828.5528,70.7738,824.422,74.6386,833.55,70.94" style="stroke:#A80036;stroke-width:1;"/><text fill="#000000" font-family="sans-serif" font-size="13" lengthAdjust="spacing" textLength="47.0996" x="754" y="65.0669">include</text></g><!--link Capteurs to Voir temp?rature--><g id="link_Capteurs_Voir temp&#233;rature"><path d="M1107.29,96.99 C1160.72,106.35 1215.6199,115.9655 1260.1799,123.7655 " fill="none" id="Capteurs-to-Voir temp&#233;rature" style="stroke:#A80036;stroke-width:1;stroke-dasharray:7.0,7.0;"/><polygon fill="#A80036" points="1266.09,124.8,1257.9145,119.3081,1261.1649,123.9379,1256.5351,127.1883,1266.09,124.8" style="stroke:#A80036;stroke-width:1;"/><text fill="#000000" font-family="sans-serif" font-size="13" lengthAdjust="spacing" textLength="47.0996" x="1172" y="106.0669">include</text></g><!--link Capteurs to Voir humidit?--><g id="link_Capteurs_Voir humidit&#233;"><path d="M1139.72,71.56 C1182.06,70.32 1219.9826,69.215 1254.9326,68.195 " fill="none" id="Capteurs-to-Voir humidit&#233;" style="stroke:#A80036;stroke-width:1;stroke-dasharray:7.0,7.0;"/><polygon fill="#A80036" points="1260.93,68.02,1251.8171,64.2843,1255.9321,68.1659,1252.0505,72.2808,1260.93,68.02" style="stroke:#A80036;stroke-width:1;"/><text fill="#000000" font-family="sans-serif" font-size="13" lengthAdjust="spacing" textLength="47.0996" x="1172" y="66.0669">include</text></g><!--link Historique to Filtrer par salle--><g id="link_Historique_Filtrer par salle"><path d="M380.57,284.81 C424.69,276.94 477.21,268.88 525,265 C647.72,255.05 679.08,261.87 802,269 C838.97,271.14 874.1234,273.4097 908.0734,275.6797 " fill="none" id="Historique-to-Filtrer par salle" style="stroke:#A80036;stroke-width:1;stroke-dasharray:7.0,7.0;"/><polygon fill="#A80036" points="914.06,276.08,905.3469,271.4885,909.0711,275.7464,904.8132,279.4707,914.06,276.08" style="stroke:#A80036;stroke-width:1;"/><text fill="#000000" font-family="sans-serif" font-size="13" lengthAdjust="spacing" textLength="47.0996" x="600.5" y="257.0669">include</text></g><!--link Historique to Filtrer par p?riode--><g id="link_Historique_Filtrer par p&#233;riode"><path d="M362.83,328.81 C409.93,341.12 470.26,354.82 525,361 C659.68,376.2 811.9097,368.2454 903.4497,360.8154 " fill="none" id="Historique-to-Filtrer par p&#233;riode" style="stroke:#A80036;stroke-width:1;stroke-dasharray:7.0,7.0;"/><polygon fill="#A80036" points="909.43,360.33,900.1359,357.0712,904.4464,360.7345,900.7831,365.045,909.43,360.33" style="stroke:#A80036;stroke-width:1;"/><text fill="#000000" font-family="sans-serif" font-size="13" lengthAdjust="spacing" textLength="47.0996" x="600.5" y="357.0669">include</text></g><!--link Historique to Filtrer par type de capteur--><g id="link_Historique_Filtrer par type de capteur"><path d="M339.54,332.07 C388.33,352.97 459.72,380.67 525,395 C643.49,421.01 776.7119,429.0502 870.8119,431.4002 " fill="none" id="Historique-to-Filtrer par type de capteur" style="stroke:#A80036;stroke-width:1;stroke-dasharray:7.0,7.0;"/><polygon fill="#A80036" points="876.81,431.55,867.9127,427.3266,871.8116,431.4252,867.7129,435.3241,876.81,431.55" style="stroke:#A80036;stroke-width:1;"/><text fill="#000000" font-family="sans-serif" font-size="13" lengthAdjust="spacing" textLength="47.0996" x="600.5" y="391.0669">include</text></g><!--link Historique to Afficher les graphiques--><g id="link_Historique_Afficher les graphiques"><path d="M416.06,305 C452.43,305 485.04,305 518.93,305 " fill="none" id="Historique-to-Afficher les graphiques" style="stroke:#A80036;stroke-width:1;stroke-dasharray:7.0,7.0;"/><polygon fill="#A80036" points="524.93,305,515.93,301,519.93,305,515.93,309,524.93,305" style="stroke:#A80036;stroke-width:1;"/><text fill="#000000" font-family="sans-serif" font-size="13" lengthAdjust="spacing" textLength="47.0996" x="447" y="301.0669">include</text></g><!--link Afficher les graphiques to Filtrer par salle--><g id="link_Afficher les graphiques_Filtrer par salle"><path d="M719.25,298.73 C780.27,294.66 852.4733,289.8588 908.3133,286.1388 " fill="none" id="Afficher les graphiques-to-Filtrer par salle" style="stroke:#A80036;stroke-width:1;stroke-dasharray:7.0,7.0;"/><polygon fill="#A80036" points="914.3,285.74,905.054,282.3471,909.3111,286.0724,905.5858,290.3294,914.3,285.74" style="stroke:#A80036;stroke-width:1;"/><text fill="#000000" font-family="sans-serif" font-size="13" lengthAdjust="spacing" textLength="46.7886" x="754.5" y="290.0669">require</text></g><!--link Afficher les graphiques to Filtrer par p?riode--><g id="link_Afficher les graphiques_Filtrer par p&#233;riode"><path d="M709.52,316.25 C771.64,324.53 849.1824,334.8484 908.0124,342.6784 " fill="none" id="Afficher les graphiques-to-Filtrer par p&#233;riode" style="stroke:#A80036;stroke-width:1;stroke-dasharray:7.0,7.0;"/><polygon fill="#A80036" points="913.96,343.47,905.5664,338.3176,909.0037,342.8103,904.5109,346.2476,913.96,343.47" style="stroke:#A80036;stroke-width:1;"/><text fill="#000000" font-family="sans-serif" font-size="13" lengthAdjust="spacing" textLength="46.7886" x="754.5" y="320.0669">require</text></g><!--SRC=[bLCxRiCm3Drz2cvfX-G07G840Thk1RghDcqJLII5eWeKHIxJpUVmnIh9pgTsKo1UR9FlaU-Hadyd0smz5eN6Ma0iC3MjG4MCfP0rHQ5AiGpR5hbiCN1Hf8moZKROEAUfL0a7NmN4vsvhZGzQa44hA1KBGXNWhVyMsg6HUr0UjYaym5_91wN99pnw85DRtkM27geOA9MJsDIFlE5drcdHaeyYQHymiofhJD_Xm7e-vOfCF3c1vN9zeIL_mMgrZgeiCVITACdbd8sPMEmXwYjrg6RubxxJmxXCb1CCWbTQuupng_DKr_KggSVH-qp463xh5jovlcCbWUSAvl0sxAWYwRjBR0Olu8bjS1ZzHybnIuqPrrIJ5exl3sI9-zUOLfivOXkKQ7Cy3jdNOqOpECMZexzpIJNPwbfQFbtQxl583AZ38FKyoy7PlELa4FyHJZfku4p5JMSvvMxgcifs76V3ohKfDpjZrt7NRJBkGxozj_8lNHzB77u0]--></g></svg>